<?xml version="1.0" encoding="UTF-8"?>
<svg id="Calque_2" data-name="Calque 2" xmlns="http://www.w3.org/2000/svg" viewBox="0 0 1776.97 120.73">
  <defs>
    <style>
      .cls-1 {
        fill: #111;
      }
    </style>
  </defs>
  <g id="Calque_1-2" data-name="Calque 1">
    <g>
      <path class="cls-1" d="M0,2.84h31.79c26.29,0,38.76,19.54,38.76,48.17s-13.33,47.51-39.62,47.51H0V2.84ZM30.57,87.95c20.54,0,28.74-14.45,28.74-36.93S51.97,13.27,31.43,13.27H11.01v74.67h19.57Z"/>
      <path class="cls-1" d="M83.64,2.84h61.75v10.57h-50.75v30.24h46.1v10.17h-46.1v33.59h52.22v11.11h-63.22V2.84Z"/>
      <path class="cls-1" d="M152.97,66.13h10.76c1.47,16.19,10.52,24.62,27.02,24.62,12.11,0,20.79-6.02,20.79-17.93,0-13.11-10.52-16.19-26.17-19.94-15.41-3.75-28.62-8.56-28.62-26.63,0-15.79,11.98-25.29,29.72-25.29,21.89,0,30.94,12.18,33.14,29.84h-10.39c-1.59-13.65-9.66-20.47-22.5-20.47-11.86,0-19.69,5.49-19.69,15.39,0,10.84,9.78,14.05,22.87,16.86,17,3.75,32.53,8.3,32.53,29.84,0,17.93-13.33,27.97-32.16,27.97-24.58,0-36.32-14.99-37.3-34.26Z"/>
      <path class="cls-1" d="M235.27,2.84h11.01v95.68h-11.01V2.84Z"/>
      <path class="cls-1" d="M328.2,85.94h-.25c-6.36,9.77-15.77,14.59-27.27,14.59-24.58,0-41.09-20.47-41.09-49.51S274.15.83,301.67.83c20.3,0,32.77,12.04,35.58,30.78h-11.37c-2.45-12.71-10.64-20.34-24.46-20.34-21.03,0-30.57,17.26-30.57,39.74s12.47,39.08,30.2,39.08,26.41-13.38,26.41-29.44v-2.27h-26.29v-10.44h37.3v50.58h-7.09l-3.18-12.58Z"/>
      <path class="cls-1" d="M353.63,2.84h11.62l39.87,66.51c2.93,4.95,6.36,12.31,6.36,12.31h.24V2.84h10.27v95.68h-11.25l-40.11-66.64c-2.81-4.68-6.48-11.91-6.48-11.91h-.24v78.55h-10.27V2.84Z"/>
      <path class="cls-1" d="M438.37,2.84h61.75v10.57h-50.75v30.24h46.1v10.17h-46.1v33.59h52.22v11.11h-63.22V2.84Z"/>
      <path class="cls-1" d="M514.43,2.84h40.84c15.41,0,25.8,10.57,25.8,26.23,0,11.64-4.65,19.94-15.16,23.69v.4c8.93,3.48,11.74,10.17,12.6,24.36.98,15.39,2.45,19.27,4.04,20.47v.54h-11.86c-1.83-1.74-2.2-5.35-3.18-21.41-.86-14.05-5.99-19-17.73-19h-24.33v40.41h-11.01V2.84ZM525.44,48.33h25.92c12.23,0,18.34-6.69,18.34-17.53,0-11.64-4.89-17.53-17.73-17.53h-26.54v35.06Z"/>
      <path class="cls-1" d="M585.96,112.57h50.38v8.16h-50.38v-8.16Z"/>
      <path class="cls-1" d="M637.81,2.84h11.49l13.82,62.23c1.47,6.42,3.3,16.19,3.3,16.19h.24s2.08-10.17,3.67-16.46l15.77-61.96h11.86l15.29,61.96c1.59,6.42,3.55,16.46,3.55,16.46h.25s2.08-10.3,3.42-16.19l14.55-62.23h11.13l-24.33,95.68h-10.52l-16.02-67.45c-1.35-5.62-3.18-14.59-3.18-14.59h-.24s-1.83,8.97-3.3,14.59l-17.12,67.45h-11.01l-22.62-95.68Z"/>
      <path class="cls-1" d="M756.3,2.84h11.01v95.68h-11.01V2.84Z"/>
      <path class="cls-1" d="M778.43,2.84h69.21v10.57h-29.1v85.11h-11V13.41h-29.1V2.84Z"/>
      <path class="cls-1" d="M858.53,2.84h11v40.68h46.71V2.84h11.01v95.68h-11.01v-45.23h-46.71v45.23h-11V2.84Z"/>
      <path class="cls-1" d="M935.2,112.57h50.38v8.16h-50.38v-8.16Z"/>
      <path class="cls-1" d="M1018.71,2.84h12.35l32.28,95.68h-11.98l-9.29-29.17h-34.85l-9.42,29.17h-11.25L1018.71,2.84ZM1010.4,59.58h28.61l-10.03-32.12c-1.71-5.35-3.91-13.52-3.91-13.52h-.24s-2.32,8.03-4.04,13.52l-10.39,32.12Z"/>
      <path class="cls-1" d="M1064.32,112.57h50.38v8.16h-50.38v-8.16Z"/>
      <path class="cls-1" d="M1122.65,2.84h14.06l28.37,79.49h.24l28.12-79.49h14.31v95.68h-10.52V19.83h-.24s-2.32,7.49-3.91,12.04l-23.97,66.64h-8.44l-23.97-66.64c-1.71-4.82-3.91-12.04-3.91-12.04h-.25v78.69h-9.9V2.84Z"/>
      <path class="cls-1" d="M1319.52,2.84h11.62l39.87,66.51c2.93,4.95,6.36,12.31,6.36,12.31h.25V2.84h10.27v95.68h-11.25l-40.11-66.64c-2.81-4.68-6.48-11.91-6.48-11.91h-.24v78.55h-10.27V2.84Z"/>
      <path class="cls-1" d="M1398.76,66.13h10.76c1.47,16.19,10.52,24.62,27.02,24.62,12.11,0,20.79-6.02,20.79-17.93,0-13.11-10.52-16.19-26.17-19.94-15.41-3.75-28.61-8.56-28.61-26.63,0-15.79,11.98-25.29,29.71-25.29,21.89,0,30.94,12.18,33.14,29.84h-10.39c-1.59-13.65-9.66-20.47-22.5-20.47-11.86,0-19.69,5.49-19.69,15.39,0,10.84,9.78,14.05,22.87,16.86,17,3.75,32.53,8.3,32.53,29.84,0,17.93-13.33,27.97-32.16,27.97-24.58,0-36.32-14.99-37.3-34.26Z"/>
      <path class="cls-1" d="M1471.03,2.84h69.21v10.57h-29.1v85.11h-11.01V13.41h-29.1V2.84Z"/>
      <path class="cls-1" d="M1551.12,2.84h61.75v10.57h-50.75v30.24h46.1v10.17h-46.1v33.59h52.22v11.11h-63.22V2.84Z"/>
      <path class="cls-1" d="M1627.18,2.84h40.84c15.41,0,25.8,10.57,25.8,26.23,0,11.64-4.65,19.94-15.16,23.69v.4c8.93,3.48,11.74,10.17,12.59,24.36.98,15.39,2.45,19.27,4.04,20.47v.54h-11.86c-1.83-1.74-2.2-5.35-3.18-21.41-.86-14.05-5.99-19-17.73-19h-24.33v40.41h-11V2.84ZM1638.18,48.33h25.92c12.23,0,18.34-6.69,18.34-17.53,0-11.64-4.89-17.53-17.73-17.53h-26.54v35.06Z"/>
      <path class="cls-1" d="M1732.34,2.84h12.35l32.28,95.68h-11.98l-9.29-29.17h-34.85l-9.42,29.17h-11.25l32.16-95.68ZM1724.02,59.58h28.61l-10.03-32.12c-1.71-5.35-3.91-13.52-3.91-13.52h-.24s-2.32,8.03-4.04,13.52l-10.39,32.12Z"/>
      <g>
        <path class="cls-1" d="M1259.52,71.51c0-5.69,2.96-8.41,3.3-19.53-7.96,5.97-8.64,10.17-12.74,13.02-.91.68-1.71.95-2.62.95-1.36,0-2.5-.81-3.3-2.31-.34-.68-.45-1.49-.45-2.31,0-1.63.91-3.25,2.5-4.34,3.98-2.71,7.85-1.22,15.92-6.37-8.3-5.29-11.83-3.93-15.92-6.64-1.59-1.22-2.5-2.71-2.5-4.47,0-.68.11-1.49.45-2.31.8-1.49,1.93-2.31,3.3-2.31.91,0,1.71.27,2.62.95,4.09,2.85,4.78,7.46,12.85,13.29-.23-11.12-3.41-14.1-3.41-19.8,0-3.25,1.48-5.29,3.87-5.29s3.98,2.03,3.98,5.29c0,5.7-2.96,8.81-3.18,19.8,7.85-5.7,8.53-10.44,12.51-13.29,1.02-.68,1.82-.95,2.73-.95,1.36,0,2.5.81,3.3,2.31.34.81.46,1.63.46,2.31,0,1.76-.91,3.25-2.5,4.47-4.09,2.71-7.85,1.36-15.92,6.64,8.08,5.02,11.83,3.66,15.92,6.37,1.59,1.09,2.5,2.71,2.5,4.34,0,.81-.11,1.63-.46,2.31-.8,1.49-1.93,2.31-3.3,2.31-.91,0-1.71-.27-2.73-.95-3.98-2.85-4.66-7.19-12.51-13.02.34,10.98,3.18,13.97,3.18,19.53,0,3.25-1.48,5.42-3.98,5.42s-3.87-2.17-3.87-5.42Z"/>
        <path class="cls-1" d="M1263.44,0c-23.61,0-42.81,22.69-42.81,50.59s19.21,50.58,42.81,50.58,42.81-22.69,42.81-50.58S1287.05,0,1263.44,0ZM1293.6,70.93l.04.03c-5.89,12.14-16.88,20.41-29.49,20.71v-.07c-.23,0-.47.01-.7.01-.18,0-.36,0-.55,0v.07c-12.45-.23-23.34-8.23-29.33-20.06l.04-.03c-.21-.42-.42-.85-.62-1.28l-.04.03c-2.73-5.86-4.28-12.59-4.28-19.74s1.53-13.77,4.21-19.59l.04.03c.2-.43.41-.86.62-1.28l-.04-.03c5.97-11.92,16.9-19.98,29.4-20.21v.07c.18,0,.36,0,.55,0,.24,0,.47,0,.7.01v-.07c12.27.29,23,8.12,29,19.72l-.04.03c.22.42.43.85.63,1.27l.04-.03c2.83,5.94,4.45,12.79,4.45,20.08,0,6.88-1.44,13.37-3.98,19.08l-.04-.03c-.19.44-.39.87-.6,1.29Z"/>
      </g>
    </g>
  </g>
</svg>