<?xml version="1.0" encoding="UTF-8"?>
<svg id="Calque_2" data-name="Calque 2" xmlns="http://www.w3.org/2000/svg" viewBox="0 0 1183.17 1397.91">
  <defs>
    <style>
      .cls-1 {
        fill: #41f373;
      }
    </style>
  </defs>
  <g id="Calque_2-2" data-name="Calque 2">
    <g>
      <path class="cls-1" d="M537.36,988.1c0-78.69,40.86-116.16,45.58-269.8-110.01,82.44-119.44,140.52-176.02,179.87-12.57,9.37-23.58,13.12-36.15,13.12-18.86,0-34.58-11.24-45.58-31.85-4.71-9.37-6.29-20.61-6.29-31.85,0-22.48,12.57-44.97,34.57-59.96,55.01-37.47,108.44-16.86,220.03-88.06-114.73-73.07-163.45-54.33-220.03-91.8-22-16.86-34.57-37.48-34.57-61.83,0-9.37,1.57-20.61,6.29-31.85,11-20.61,26.72-31.86,45.58-31.86,12.57,0,23.57,3.75,36.15,13.12,56.58,39.35,66.01,103.06,177.59,183.62-3.14-153.64-47.15-194.86-47.15-273.55,0-44.97,20.43-73.07,53.44-73.07s55,28.1,55,73.07c0,78.69-40.86,121.79-44,273.55,108.44-78.69,117.87-144.27,172.88-183.62,14.14-9.37,25.14-13.12,37.72-13.12,18.86,0,34.57,11.24,45.58,31.86,4.72,11.24,6.29,22.48,6.29,31.85,0,24.35-12.57,44.97-34.58,61.83-56.58,37.47-108.44,18.73-220.02,91.8,111.58,69.33,163.45,50.59,220.02,88.06,22,14.99,34.58,37.48,34.58,59.96,0,11.24-1.57,22.48-6.29,31.85-11,20.61-26.72,31.85-45.58,31.85-12.57,0-23.58-3.75-37.72-13.12-55.01-39.35-64.44-99.3-172.88-179.87,4.71,151.76,44,192.98,44,269.8,0,44.97-20.43,74.95-55,74.95s-53.44-29.98-53.44-74.95Z"/>
      <path class="cls-1" d="M591.58,0C265.38,0,0,313.55,0,698.96s265.38,698.94,591.58,698.94,591.58-313.55,591.58-698.94S917.78,0,591.58,0ZM1008.25,980.1l.55.36c-81.41,167.78-233.23,282.01-407.5,286.12v-.95c-3.23.08-6.46.15-9.71.15-2.52,0-5.03-.07-7.54-.11v.95c-172.06-3.15-322.46-113.65-405.22-277.21l.54-.37c-2.95-5.83-5.81-11.72-8.58-17.68l-.55.38c-37.71-81-59.2-173.97-59.2-272.76s21.11-190.19,58.23-270.71l.55.36c2.75-5.98,5.62-11.87,8.54-17.72l-.54-.36c82.54-164.68,233.46-276.09,406.23-279.25v.95c2.51-.05,5.02-.11,7.54-.11,3.25,0,6.48.07,9.71.14v-.95c169.53,3.99,317.8,112.2,400.69,272.54l-.53.36c2.99,5.8,5.88,11.68,8.7,17.61l.55-.37c39.1,82.11,61.44,176.77,61.44,277.5,0,95.1-19.92,184.79-55.05,263.62l-.56-.37c-2.68,6.02-5.43,12-8.28,17.89Z"/>
    </g>
  </g>
</svg>