<?xml version="1.0" encoding="UTF-8"?>
<svg id="Calque_2" data-name="Calque 2" xmlns="http://www.w3.org/2000/svg" viewBox="0 0 252.84 284.17">
  <defs>
    <style>
      .cls-1 {
        fill: #0f1f1f;
      }
    </style>
  </defs>
  <g id="Calque_1-2" data-name="Calque 1">
    <path class="cls-1" d="M101.28,255.03c0-30.6,18.94-45.18,21.13-104.92-51.01,32.06-55.38,54.65-81.61,69.95-5.83,3.64-10.93,5.1-16.76,5.1-8.74,0-16.03-4.37-21.13-12.39-2.19-3.64-2.91-8.02-2.91-12.39,0-8.74,5.83-17.49,16.03-23.32,25.5-14.57,50.28-6.56,102.01-34.25-53.19-28.42-75.78-21.13-102.01-35.7C5.83,100.55,0,92.54,0,83.07c0-3.64.73-8.02,2.91-12.39,5.1-8.02,12.39-12.39,21.13-12.39,5.83,0,10.93,1.46,16.76,5.1,26.23,15.3,30.6,40.08,82.34,71.41-1.46-59.75-21.86-75.78-21.86-106.38,0-17.49,9.47-28.42,24.77-28.42s25.5,10.93,25.5,28.42c0,30.6-18.94,47.36-20.4,106.38,50.28-30.6,54.65-56.11,80.15-71.41,6.56-3.64,11.66-5.1,17.49-5.1,8.74,0,16.03,4.37,21.13,12.39,2.19,4.37,2.92,8.74,2.92,12.39,0,9.47-5.83,17.49-16.03,24.05-26.23,14.57-50.28,7.29-102.01,35.7,51.73,26.96,75.78,19.68,102.01,34.25,10.2,5.83,16.03,14.57,16.03,23.32,0,4.37-.73,8.74-2.92,12.39-5.1,8.01-12.39,12.39-21.13,12.39-5.83,0-10.93-1.46-17.49-5.1-25.5-15.3-29.88-38.62-80.15-69.95,2.19,59.02,20.4,75.05,20.4,104.92,0,17.49-9.47,29.15-25.5,29.15s-24.77-11.66-24.77-29.15Z"/>
  </g>
</svg>